<?xml version="1.0" standalone="no"?>
<!DOCTYPE svg PUBLIC "-//W3C//DTD SVG 20010904//EN"
 "http://www.w3.org/TR/2001/REC-SVG-20010904/DTD/svg10.dtd">
<svg version="1.0" xmlns="http://www.w3.org/2000/svg"
 width="708.000000pt" height="803.000000pt" viewBox="0 0 708.000000 803.000000"
 preserveAspectRatio="xMidYMid meet">

<g transform="translate(0.000000,803.000000) scale(0.100000,-0.100000)"
fill="#000000" stroke="none">
<path d="M3535 7904 c-16 -2 -52 -11 -80 -18 -27 -8 -68 -20 -90 -26 -22 -6
-63 -9 -92 -7 -55 4 -180 -6 -250 -21 -42 -9 -69 -24 -226 -124 -32 -21 -63
-38 -69 -38 -12 0 -65 -43 -121 -98 -39 -38 -117 -145 -117 -160 0 -5 -9 -17
-20 -27 -11 -10 -20 -24 -20 -32 0 -7 -7 -16 -15 -19 -8 -4 -15 -12 -15 -19 0
-6 -9 -20 -20 -30 -25 -23 -52 -74 -44 -86 3 -5 -1 -9 -9 -9 -8 0 -17 -14 -21
-32 -4 -18 -18 -50 -31 -70 -14 -21 -25 -43 -25 -51 0 -7 -6 -22 -14 -33 -8
-11 -17 -36 -21 -56 -4 -20 -13 -39 -20 -42 -8 -3 -17 -22 -21 -43 -4 -21 -11
-47 -17 -58 -6 -11 -11 -29 -12 -40 -1 -11 -7 -55 -14 -97 -13 -83 -18 -527
-8 -685 3 -50 13 -109 22 -130 9 -21 19 -75 22 -121 3 -45 10 -85 14 -88 5 -3
9 -10 9 -16 0 -7 -5 -6 -15 2 -15 12 -39 5 -30 -10 3 -4 -2 -10 -10 -14 -19
-7 -21 -126 -3 -144 19 -19 34 -14 47 14 10 23 13 25 24 11 12 -15 28 -21 57
-18 13 1 13 2 0 11 -12 8 -12 10 3 16 9 3 14 10 11 15 -3 5 2 6 11 3 9 -4 14
-11 13 -16 -2 -6 11 -25 29 -43 22 -22 33 -43 33 -62 0 -34 -25 -73 -47 -73
-9 0 -13 -6 -10 -14 4 -10 1 -13 -9 -9 -12 4 -14 0 -8 -21 5 -21 3 -26 -13
-26 -22 0 -24 -9 -24 -88 0 -60 22 -125 54 -159 11 -13 15 -23 9 -23 -6 0 -9
-6 -6 -14 4 -10 -2 -12 -20 -9 -28 6 -34 -5 -14 -25 9 -9 9 -12 -1 -12 -7 0
-9 -4 -6 -10 3 -5 1 -10 -4 -10 -6 0 -11 -4 -11 -10 0 -5 6 -10 13 -10 21 0
58 -45 47 -56 -7 -7 -4 -17 7 -30 10 -10 19 -32 20 -49 0 -16 6 -31 11 -33 6
-2 8 -18 5 -35 -3 -19 4 -60 15 -97 12 -36 25 -102 31 -147 6 -46 20 -101 31
-123 11 -21 20 -50 20 -62 0 -13 11 -41 25 -63 13 -22 30 -52 36 -68 6 -15 20
-32 30 -38 10 -5 19 -18 19 -29 0 -10 5 -22 10 -25 6 -3 10 -15 10 -26 0 -10
3 -19 8 -19 12 0 42 -60 42 -86 0 -13 -15 -41 -35 -63 -19 -21 -35 -42 -35
-47 -1 -26 -41 -52 -104 -68 -88 -22 -165 -59 -213 -103 -21 -19 -71 -57 -113
-83 -116 -75 -120 -79 -120 -107 0 -16 -12 -37 -35 -58 -25 -22 -34 -37 -29
-49 10 -26 -41 -73 -87 -81 -21 -4 -41 -11 -45 -16 -7 -12 -61 -11 -84 1 -15
8 -34 3 -87 -22 -38 -18 -72 -38 -76 -45 -4 -7 -13 -13 -19 -13 -5 0 -37 -22
-70 -50 -33 -27 -66 -50 -73 -50 -26 0 -132 -58 -182 -100 -7 -5 -16 -10 -20
-10 -4 0 -21 -11 -36 -24 -16 -14 -43 -28 -60 -32 -18 -4 -38 -15 -45 -25 -6
-9 -26 -20 -42 -24 -17 -4 -30 -10 -30 -15 0 -4 -12 -13 -27 -19 -16 -6 -41
-20 -58 -31 -16 -11 -43 -25 -58 -31 -20 -8 -25 -15 -18 -22 7 -7 6 -19 -4
-37 -12 -23 -23 -29 -67 -34 -29 -4 -58 -12 -65 -18 -7 -5 -27 -14 -45 -18
-75 -18 -212 -82 -241 -112 -10 -10 -30 -18 -46 -18 -16 0 -39 -8 -52 -18 -13
-10 -37 -24 -54 -32 -30 -15 -64 -41 -93 -72 -9 -10 -21 -18 -27 -18 -5 0 -24
-17 -40 -37 -17 -21 -45 -52 -63 -69 -17 -17 -32 -36 -32 -42 0 -7 -4 -12 -10
-12 -7 0 -10 -368 -10 -1085 l0 -1085 568 0 568 0 12 32 c12 31 14 32 27 15 7
-11 11 -25 8 -33 -4 -12 45 -14 316 -14 177 0 321 2 321 4 0 3 -4 16 -10 30
-6 16 -6 27 0 31 11 7 13 45 4 69 -6 15 -87 76 -102 76 -4 0 -13 -14 -20 -30
l-14 -30 -30 25 c-28 23 -41 27 -110 30 -16 1 -28 5 -27 11 0 5 7 8 15 6 8 -2
14 5 14 14 0 13 7 16 33 11 38 -6 51 0 53 25 2 19 -44 32 -87 26 -16 -2 -24 2
-24 12 0 8 -4 20 -8 26 -10 17 12 31 63 38 25 4 58 13 74 21 34 18 53 19 58 3
3 -8 16 -9 48 -2 35 7 47 16 63 44 11 19 24 38 30 42 7 4 7 12 -3 23 -10 13
-11 23 -1 56 7 23 9 58 5 84 -3 25 -3 53 1 62 4 10 8 86 9 170 1 106 5 156 14
165 14 14 16 48 2 48 -5 0 -10 7 -10 15 0 8 -4 15 -10 15 -12 0 -14 57 -2 64
4 2 8 24 7 47 0 34 -4 43 -20 45 -30 5 -43 -20 -38 -70 5 -39 2 -46 -21 -61
-14 -10 -32 -15 -40 -12 -7 3 -18 1 -23 -4 -5 -5 -33 -12 -61 -16 -29 -3 -52
-10 -52 -14 0 -5 -11 -9 -24 -9 -14 0 -28 -5 -31 -10 -5 -7 -11 -8 -19 -1 -13
11 -115 8 -159 -4 -42 -11 -56 14 -49 92 2 35 2 63 0 63 -11 0 -73 -29 -63
-30 6 0 5 -4 -2 -8 -9 -5 -9 -18 0 -51 10 -35 9 -45 -1 -49 -24 -8 -40 -32
-47 -72 -6 -34 -11 -40 -31 -40 -15 0 -24 6 -24 16 0 12 -9 14 -37 12 -28 -2
-41 -9 -50 -28 -15 -31 -9 -37 45 -44 32 -4 44 -2 48 9 14 35 51 4 51 -43 0
-17 -3 -32 -7 -32 -6 0 -8 -11 -13 -78 -3 -42 -7 -47 -30 -39 -9 3 -9 9 1 26
7 12 10 27 6 33 -4 6 -10 25 -13 42 -6 27 -11 30 -48 32 -41 2 -42 2 -36 -27
4 -19 1 -29 -7 -29 -8 0 -10 -7 -5 -17 11 -30 13 -63 3 -69 -16 -10 -28 9 -32
52 -2 21 -8 58 -11 82 -6 35 -4 45 11 56 17 13 17 15 1 37 -31 45 -44 59 -55
59 -5 0 -12 7 -16 15 -6 16 -42 20 -78 7 -14 -5 -37 -3 -58 4 -31 11 -33 13
-15 20 11 4 30 16 42 26 17 16 25 18 41 9 22 -12 49 -15 39 -5 -3 4 0 16 8 28
21 29 19 41 -11 55 -23 10 -26 9 -31 -9 -3 -10 -4 -23 -2 -27 5 -10 -50 -20
-74 -15 -9 2 -17 12 -17 22 0 21 -63 34 -92 19 -10 -6 -27 -9 -36 -7 -31 7 18
26 96 36 40 6 79 16 87 22 10 9 19 8 36 0 17 -10 29 -9 60 6 22 9 39 20 39 25
0 4 12 26 27 48 18 28 30 38 37 31 17 -17 55 -11 73 10 10 11 27 20 38 20 18
0 18 2 -6 23 -28 23 -44 64 -27 69 6 2 13 27 15 55 4 33 12 58 24 69 26 24 32
14 33 -59 1 -40 6 -70 16 -82 13 -15 12 -19 -6 -34 -22 -18 -22 -25 6 -87 23
-51 77 -73 116 -47 16 10 28 12 37 6 6 -5 34 -18 60 -27 37 -14 51 -15 62 -6
8 7 53 11 119 11 90 0 108 3 130 20 17 13 33 18 46 14 24 -8 71 19 114 64 22
23 36 29 50 25 17 -5 19 -4 9 7 -18 18 -16 29 5 29 10 0 28 9 41 21 l22 21 54
-51 c30 -28 59 -51 65 -51 7 0 24 9 38 21 26 20 27 20 42 1 12 -15 25 -18 60
-15 25 3 74 6 110 7 36 1 75 6 88 10 13 4 50 5 82 1 l58 -7 4 -46 c3 -26 1
-52 -4 -58 -4 -6 -5 -14 -1 -18 12 -12 13 -48 2 -62 -14 -17 -46 -18 -51 -2
-3 8 -11 9 -24 3 -22 -10 -103 -16 -227 -15 l-88 0 -11 -30 c-11 -33 -38 -41
-38 -11 0 10 -7 25 -16 32 -13 11 -18 10 -32 -7 -10 -11 -29 -28 -44 -37 -36
-23 -51 -52 -39 -75 7 -13 5 -47 -5 -106 -12 -67 -13 -91 -4 -102 7 -7 10 -21
6 -29 -3 -8 -8 -61 -11 -117 -3 -57 -8 -126 -11 -155 -6 -58 14 -103 47 -103
11 0 19 -4 19 -10 0 -16 31 -12 51 6 15 13 24 15 46 6 24 -10 119 -10 356 -3
11 1 22 13 28 31 6 16 15 30 20 30 16 0 24 -5 24 -15 0 -6 7 -20 16 -33 16
-22 16 -22 34 -2 10 11 26 20 36 20 10 0 23 9 29 20 7 14 21 20 44 20 46 0 61
20 47 62 -8 21 -8 35 -1 42 6 6 4 16 -6 27 -19 22 -32 99 -15 99 11 0 10 20
-2 50 -3 8 -13 39 -21 69 -13 44 -13 57 -4 64 10 7 10 10 1 14 -18 7 -16 23 2
23 21 0 19 21 -4 27 -14 3 -18 14 -18 45 0 24 5 42 13 45 8 3 14 11 14 18 0 8
8 11 20 8 14 -4 20 0 20 12 0 12 -5 15 -16 11 -27 -10 -67 14 -95 58 -24 39
-26 47 -23 161 1 66 7 134 12 151 6 19 6 36 1 41 -6 6 -5 31 1 63 6 32 7 57 1
63 -5 5 -6 21 -2 36 4 14 7 54 5 88 -1 35 2 65 7 68 5 4 9 2 9 -4 0 -5 7 -17
16 -26 13 -12 14 -19 4 -30 -7 -8 -9 -22 -5 -32 9 -22 13 -133 4 -133 -9 0 2
-49 13 -56 11 -7 48 24 48 39 0 6 -3 8 -6 4 -4 -3 -13 1 -21 9 -13 13 -12 17
12 36 23 18 26 25 20 59 -5 29 -3 39 7 39 10 0 10 2 1 8 -17 11 0 34 21 26 12
-5 14 -10 6 -19 -8 -9 -6 -14 5 -19 9 -3 15 -17 15 -33 -1 -28 7 -106 11 -110
1 -2 2 -6 4 -10 1 -5 5 -17 10 -27 6 -13 3 -29 -7 -47 -9 -15 -13 -30 -10 -34
4 -4 7 -12 7 -18 0 -7 12 -18 28 -25 15 -7 27 -19 27 -27 0 -21 38 -29 56 -11
21 22 41 20 54 -4 6 -10 28 -24 50 -30 22 -6 40 -14 40 -18 1 -4 2 -34 4 -67
1 -33 6 -68 10 -77 6 -13 3 -20 -10 -24 -28 -9 -56 -20 -85 -34 -24 -11 -29
-10 -48 9 -21 21 -46 19 -66 -5 -5 -7 -19 -14 -30 -16 -15 -3 -19 -10 -17 -33
1 -17 3 -135 5 -263 2 -211 4 -233 20 -238 23 -7 22 -21 -3 -29 -15 -5 -19
-13 -17 -35 2 -16 9 -35 15 -43 7 -8 9 -17 5 -20 -3 -4 3 -10 13 -14 10 -3 23
-12 27 -20 11 -18 47 -16 68 3 16 15 19 14 33 -15 15 -28 19 -30 65 -26 27 1
54 6 59 9 14 8 39 -3 46 -20 3 -8 19 -14 38 -14 37 -1 68 -20 68 -41 0 -10 -2
-11 -8 -2 -9 14 -56 33 -82 33 -15 0 -18 -8 -16 -52 1 -50 3 -53 29 -56 15 -2
27 1 27 7 0 6 12 11 26 11 19 0 25 -4 21 -15 -4 -8 -1 -17 5 -21 7 -4 2 -13
-12 -24 -21 -16 -25 -16 -39 -3 -10 11 -28 14 -58 10 -25 -3 -49 0 -59 8 -22
16 -104 1 -121 -22 -7 -9 -13 -12 -13 -6 0 6 -7 14 -16 17 -18 7 -94 -15 -94
-27 0 -5 6 -5 13 -2 6 4 0 -3 -15 -15 -28 -22 -38 -63 -17 -75 9 -6 8 -24 -8
-93 l-5 -22 316 0 c191 0 316 4 316 9 0 6 -8 16 -18 23 -10 7 -22 25 -26 40
-5 21 -12 27 -29 25 -21 -2 -22 1 -23 83 -2 92 5 110 43 110 19 0 23 4 18 19
-4 13 0 23 11 29 21 12 26 58 8 73 -10 8 -11 16 -4 30 18 33 29 115 20 145 -6
22 -9 24 -10 9 -1 -11 -4 -14 -7 -8 -2 7 2 26 10 41 14 30 16 59 4 78 -3 6 -2
27 4 48 5 20 7 40 4 46 -3 5 1 14 8 21 14 14 11 59 -5 59 -5 0 0 10 12 22 12
14 19 32 16 47 -2 15 1 32 7 39 7 9 4 12 -11 12 -17 0 -20 6 -18 33 2 18 7 40
12 49 23 38 110 137 122 137 8 1 27 14 44 31 33 33 43 38 34 15 -3 -9 1 -18 9
-21 8 -4 15 -12 15 -19 0 -20 50 -28 69 -12 9 8 42 14 80 15 35 1 67 6 70 11
4 6 38 10 76 10 152 -1 153 -1 172 34 l16 32 14 -33 c11 -27 16 -31 31 -22 37
22 54 39 47 50 -5 9 -1 10 13 6 12 -4 24 -2 28 6 12 19 15 66 4 73 -6 4 -4 17
5 35 13 25 20 29 44 24 16 -4 32 -1 35 5 4 6 16 11 27 11 11 0 19 7 19 16 0
10 7 14 22 12 16 -2 30 -18 46 -52 21 -44 22 -49 6 -60 -13 -10 -14 -17 -5
-34 6 -12 23 -29 36 -38 14 -9 25 -22 25 -29 0 -15 27 -28 41 -19 5 3 9 16 9
29 0 33 19 41 36 16 9 -12 20 -19 25 -16 8 6 53 -6 104 -26 22 -8 111 -6 120
3 4 3 28 -2 54 -12 33 -12 54 -14 65 -8 13 7 21 5 31 -9 13 -17 14 -17 35 5
11 12 26 22 33 22 8 0 12 29 14 100 1 67 -2 100 -10 100 -6 0 -3 6 7 13 16 12
17 22 10 78 -4 35 -7 66 -7 69 1 3 4 37 7 75 4 39 9 94 13 123 6 53 -3 85 -36
125 -19 22 -27 22 -34 -4 -7 -26 -21 -18 -40 21 -10 18 -11 30 -5 32 6 2 12
28 15 58 2 30 5 56 7 57 1 2 9 -9 17 -25 16 -31 28 -42 47 -42 9 0 11 10 6 35
-5 28 -3 35 10 35 9 0 16 5 16 11 0 6 9 8 21 4 15 -5 19 -4 15 4 -4 7 1 11 13
11 11 0 23 -4 26 -10 3 -5 17 -10 31 -10 13 0 24 5 24 10 0 6 -4 10 -9 10 -13
0 -21 53 -9 67 7 9 4 25 -11 53 -11 22 -18 46 -15 54 5 13 -4 31 -54 116 -14
24 -22 56 -24 100 -1 38 -9 77 -19 93 -9 16 -15 37 -12 46 3 12 -6 26 -26 40
-17 12 -31 31 -31 41 0 27 -18 34 -39 16 -17 -15 -19 -15 -24 -1 -4 8 -13 15
-22 15 -9 0 -33 9 -54 19 -21 11 -47 20 -57 19 -10 0 -27 3 -38 7 -16 7 -17 5
-11 -15 5 -15 4 -20 -4 -16 -15 10 -33 83 -26 106 3 10 1 21 -5 25 -5 3 -10
17 -10 30 0 19 7 26 28 31 15 4 40 14 55 23 29 16 37 12 50 -24 3 -7 15 -6 34
1 28 10 32 9 42 -12 12 -27 46 -32 55 -8 4 9 -3 36 -15 60 -11 24 -17 49 -13
55 3 6 2 14 -5 18 -10 7 -24 141 -15 141 3 0 18 -14 35 -31 36 -36 71 -112 63
-134 -4 -9 6 -27 25 -44 17 -16 31 -36 31 -45 0 -9 7 -16 16 -16 8 0 22 -16
30 -35 8 -19 26 -41 42 -49 15 -8 39 -26 54 -40 15 -14 32 -26 38 -26 5 0 10
-5 10 -11 0 -6 6 -9 13 -6 6 2 11 9 10 15 -1 5 4 15 12 22 9 7 12 22 9 40 -4
15 -1 31 5 34 6 4 11 18 11 31 0 14 9 43 21 65 16 30 19 49 14 76 -6 34 -22
53 -150 174 -5 6 -39 39 -74 75 -64 65 -80 72 -143 66 -11 -2 -18 4 -18 14 0
8 -7 18 -15 21 -8 4 -15 13 -15 21 0 11 -6 14 -22 9 -13 -3 -27 -6 -31 -6 -5
0 -5 -5 -2 -10 3 -6 -1 -13 -11 -17 -18 -7 -48 23 -38 39 3 4 -5 12 -18 17
l-23 10 24 0 c17 1 22 5 17 17 -3 9 -6 24 -6 35 0 12 -13 25 -34 35 -30 15
-36 15 -55 2 -18 -13 -28 -13 -57 -3 -38 13 -67 35 -46 35 7 0 12 13 12 30 0
20 -5 30 -15 30 -17 0 -20 21 -4 37 12 12 -7 57 -42 102 -11 13 -19 32 -19 41
0 20 69 127 99 155 12 10 21 24 21 32 0 7 5 13 11 13 16 0 38 31 39 53 0 10 9
30 19 45 11 15 25 56 31 92 6 36 17 85 25 110 13 42 34 145 41 200 9 80 15
123 25 195 7 44 13 126 13 182 1 56 5 105 9 109 11 12 8 50 -9 100 -13 39 -14
67 -6 186 8 119 12 143 30 160 15 15 27 19 51 13 17 -4 31 -12 31 -20 0 -7 6
-18 14 -24 11 -9 15 -5 18 24 3 29 -1 40 -19 55 -19 14 -22 24 -17 51 3 19 9
43 14 54 8 19 17 89 24 180 5 80 19 160 29 173 7 9 10 76 9 186 -1 137 -6 188
-22 252 -21 81 -30 165 -30 289 0 39 -5 107 -12 153 -11 78 -10 84 9 105 14
14 23 42 27 82 13 127 2 193 -33 202 -14 3 -22 17 -26 46 -11 63 -68 112 -90
77 -17 -27 -51 9 -120 124 -10 18 -66 36 -120 39 -28 2 -86 41 -137 90 -10 10
-23 15 -28 12 -5 -3 -23 1 -39 10 -17 8 -41 15 -54 15 -13 0 -35 8 -48 18 -35
27 -251 132 -283 138 -16 2 -58 12 -95 21 -36 8 -88 17 -116 19 -148 11 -194
14 -326 18 -79 2 -157 2 -174 0z m336 -1394 c10 -6 19 -17 19 -24 0 -17 35
-48 43 -39 4 3 7 15 7 25 0 14 8 18 34 18 19 0 42 3 50 6 12 5 15 1 13 -12 -5
-31 -14 -40 -48 -42 -42 -3 -43 -5 -13 -19 16 -7 22 -8 17 0 -3 6 6 2 20 -9
15 -10 27 -22 27 -26 0 -5 7 -8 15 -8 9 0 18 -7 21 -15 3 -8 20 -18 37 -24 39
-12 165 -12 173 0 7 12 51 11 59 -1 3 -5 16 -10 29 -10 14 0 28 -10 37 -26 15
-28 45 -44 84 -44 14 0 40 -14 59 -30 22 -20 36 -26 38 -18 4 12 77 -52 79
-69 3 -32 11 -50 27 -63 19 -16 36 -80 20 -80 -17 0 -7 -22 12 -27 20 -5 41
-53 38 -88 -1 -11 2 -30 6 -42 6 -18 4 -23 -10 -23 -14 0 -15 -3 -7 -11 9 -9
8 -16 -4 -27 -13 -13 -16 -13 -24 -1 -7 12 -9 11 -9 -2 0 -13 -13 -15 -73 -15
-48 1 -80 -4 -90 -12 -9 -8 -46 -15 -84 -18 -37 -2 -81 -10 -98 -18 -16 -7
-61 -19 -100 -26 -38 -8 -74 -18 -80 -24 -5 -6 -27 -20 -47 -31 -49 -25 -50
-51 -1 -71 39 -17 118 -13 155 7 10 6 31 9 46 8 28 -3 139 27 157 41 6 4 36
13 68 19 32 6 62 13 68 16 5 4 19 -1 31 -9 12 -9 33 -16 45 -16 12 0 27 -9 33
-21 7 -11 18 -18 25 -15 9 3 12 0 8 -10 -3 -7 0 -14 6 -14 6 0 10 3 9 8 -4 14
14 52 25 52 6 0 21 -10 34 -22 13 -12 23 -16 23 -10 0 6 -4 14 -10 17 -5 3
-10 10 -10 16 0 12 37 12 45 -1 9 -15 25 -12 19 3 -2 7 -25 23 -49 35 -45 22
-65 60 -25 47 16 -5 20 -2 20 14 0 34 40 28 42 -6 0 -16 2 -33 2 -38 1 -6 14
-39 29 -73 26 -58 37 -103 55 -227 20 -135 -1 -614 -27 -623 -4 -1 -6 -14 -3
-27 3 -16 0 -25 -8 -25 -7 0 -10 -7 -6 -16 4 -9 2 -22 -4 -29 -15 -19 -41
-104 -46 -155 -7 -64 -23 -120 -34 -120 -6 0 -10 -7 -10 -15 0 -8 -4 -15 -10
-15 -5 0 -10 -6 -10 -14 0 -8 -9 -36 -20 -62 -11 -26 -22 -56 -24 -67 -1 -11
-10 -25 -19 -32 -9 -7 -17 -22 -17 -33 0 -28 -29 -62 -52 -62 -11 0 -15 -5
-12 -15 4 -9 0 -15 -10 -15 -9 0 -16 -8 -16 -19 0 -10 -7 -21 -15 -25 -8 -3
-15 -14 -15 -25 0 -10 -7 -21 -15 -25 -8 -3 -15 -12 -15 -19 0 -8 -30 -45 -67
-83 -36 -38 -65 -72 -65 -76 1 -5 -8 -8 -21 -8 -23 0 -87 -58 -87 -79 0 -6
-11 -11 -24 -11 -15 0 -26 -7 -29 -20 -3 -11 -19 -25 -36 -31 -17 -6 -36 -19
-41 -29 -5 -10 -24 -21 -42 -25 -69 -13 -118 -28 -118 -36 0 -5 -9 -9 -20 -9
-11 0 -39 -12 -61 -27 -32 -21 -53 -27 -102 -28 -43 -1 -74 -8 -102 -23 -46
-26 -65 -28 -65 -8 0 23 -22 31 -35 12 -15 -19 -42 -12 -50 14 -10 31 -31 43
-53 29 -12 -8 -26 -9 -38 -4 -11 5 -24 9 -29 10 -28 2 -123 40 -119 47 3 4 -4
8 -15 8 -12 0 -21 5 -21 11 0 5 -3 8 -8 6 -4 -3 -30 10 -57 29 -28 18 -55 34
-61 34 -7 0 -20 12 -29 28 -29 44 -97 107 -132 121 -18 7 -33 17 -33 21 0 4
-12 11 -27 15 -16 3 -48 27 -72 53 -24 26 -48 47 -52 47 -4 0 -11 3 -15 8 -4
4 0 7 9 7 26 0 20 16 -10 29 -18 8 -37 30 -53 64 -14 28 -40 64 -57 81 -18 16
-33 35 -33 41 0 7 -10 19 -22 27 -19 13 -20 18 -10 30 6 8 8 18 4 22 -4 4 2
14 12 22 11 8 15 14 9 14 -14 0 -54 36 -52 46 3 12 -19 65 -34 82 -6 8 -13 31
-14 50 -1 20 -11 48 -23 64 -11 15 -20 38 -20 51 0 14 -7 30 -15 37 -8 7 -12
16 -9 22 3 5 -2 20 -11 35 -9 14 -19 50 -21 81 -2 30 -11 63 -19 72 -19 21
-19 30 1 30 12 0 8 9 -15 33 -25 24 -29 33 -17 35 17 4 23 32 7 32 -5 0 -9 34
-8 75 0 41 5 75 9 75 4 0 8 5 8 11 0 5 -4 8 -9 4 -6 -3 -7 9 -4 30 4 25 2 35
-7 35 -9 0 -7 6 5 20 16 18 17 25 6 61 -9 29 -9 44 -2 48 5 4 8 26 6 49 -3 33
0 42 12 42 9 0 13 6 10 15 -4 8 -2 17 4 20 5 4 6 12 2 18 -12 19 -15 57 -4 57
5 0 12 8 15 18 4 11 17 25 31 32 22 12 23 14 8 25 -11 8 -13 14 -5 19 7 4 12
2 12 -3 0 -6 7 -11 15 -11 8 0 15 -7 15 -15 0 -8 9 -19 20 -25 11 -6 20 -17
20 -25 0 -8 7 -15 15 -15 8 0 15 -4 15 -9 0 -5 12 -11 28 -14 36 -8 88 -53 70
-61 -10 -5 -10 -7 0 -12 6 -3 12 -11 12 -18 0 -16 83 -42 160 -51 30 -3 61
-12 69 -18 11 -9 15 -9 19 1 3 9 14 11 38 6 46 -8 43 7 -6 40 -22 14 -40 32
-40 39 0 20 22 37 47 37 18 0 28 -11 47 -54 22 -49 27 -54 62 -58 53 -7 66 2
103 71 18 34 38 61 45 61 8 0 27 -7 42 -15 16 -8 38 -15 49 -16 11 0 14 -3 7
-6 -8 -3 -10 -9 -3 -17 5 -6 11 -26 13 -45 4 -41 30 -61 56 -45 17 12 18 46 1
52 -14 6 -11 22 5 22 22 0 28 31 9 46 -10 7 -23 14 -30 14 -6 0 -13 5 -15 12
-3 8 -12 9 -36 0 -19 -6 -30 -7 -27 -2 4 6 -1 10 -9 10 -8 0 -17 8 -21 19 -7
24 -78 33 -155 20 -30 -5 -86 -8 -124 -8 -46 1 -71 -3 -76 -11 -5 -9 -20 -11
-44 -7 -20 3 -38 1 -42 -5 -4 -6 -23 -8 -45 -5 -24 3 -40 1 -43 -7 -3 -8 -7
-7 -14 2 -5 7 -14 12 -21 10 -7 -2 -18 4 -24 13 -8 13 -5 22 11 39 11 12 24
20 29 17 5 -3 16 3 23 14 8 10 25 19 37 19 13 0 23 6 23 13 0 18 92 14 133 -6
49 -23 114 -40 126 -33 6 4 30 1 53 -5 50 -14 57 -15 123 -19 98 -5 115 -2
127 26 10 22 9 28 -13 48 -13 12 -49 30 -79 40 -30 10 -68 22 -85 28 -16 5
-57 16 -90 25 -33 8 -69 23 -80 33 -24 21 -105 50 -141 50 -14 0 -34 -5 -45
-11 -37 -19 -63 -23 -156 -23 -92 0 -92 0 -65 -18 31 -20 20 -23 -26 -7 -31
11 -31 11 -15 36 14 21 14 26 2 33 -11 8 -10 13 8 30 12 11 27 20 33 20 5 0
10 9 10 20 0 11 7 20 15 20 8 0 15 6 15 14 0 8 7 16 15 20 8 3 12 12 9 21 -3
8 -1 15 5 15 6 0 11 11 11 25 0 18 5 25 20 25 18 0 19 3 9 22 -9 16 -9 23 0
26 6 2 11 10 11 18 0 8 7 14 15 14 12 0 14 4 5 19 -7 14 -7 22 0 26 6 4 8 15
5 26 -4 11 -2 19 6 19 8 0 8 4 1 13 -14 16 -4 57 13 57 7 0 16 16 19 35 4 19
11 35 16 35 5 0 30 20 54 45 25 25 54 45 65 45 10 0 22 7 25 16 4 10 14 14 26
11 11 -3 20 -1 20 4 0 5 13 9 29 9 39 0 61 9 61 25 0 15 37 20 200 30 l95 6
30 -31 c28 -29 33 -30 87 -26 54 5 82 15 118 42 27 21 112 29 141 14z m953
-682 c20 -39 20 -38 -3 -38 -14 0 -20 9 -23 35 -5 43 6 45 26 3z m6 -164 c0
-14 -3 -14 -15 -4 -8 7 -15 14 -15 16 0 2 7 4 15 4 8 0 15 -7 15 -16z m-2586
-70 c3 -8 2 -12 -4 -9 -6 3 -10 10 -10 16 0 14 7 11 14 -7z m86 -704 c8 -5 12
-12 9 -15 -8 -8 -39 5 -39 16 0 11 11 11 30 -1z m2290 -1399 c0 -5 -10 -12
-22 -15 l-23 -7 24 -10 c16 -6 21 -14 17 -25 -4 -9 -2 -22 3 -28 10 -12 9 -41
-2 -52 -3 -4 -3 -12 0 -18 12 -19 14 -78 3 -90 -5 -7 -7 -16 -3 -19 3 -4 0
-13 -6 -21 -10 -11 -8 -17 8 -28 19 -13 19 -16 5 -36 -8 -12 -12 -27 -9 -32 3
-6 1 -10 -4 -10 -6 0 -11 -5 -11 -11 0 -5 4 -8 9 -5 5 3 8 -17 8 -44 -1 -34
-5 -50 -14 -50 -11 0 -19 -43 -14 -74 1 -4 -3 -14 -9 -20 -5 -7 -7 -16 -3 -19
5 -6 -10 -50 -40 -114 -6 -13 -7 -26 -4 -30 4 -3 3 -11 -2 -17 -5 -6 -15 -40
-21 -76 -6 -36 -18 -76 -26 -90 -7 -14 -21 -41 -29 -60 -9 -19 -29 -62 -45
-96 -17 -33 -30 -65 -30 -71 0 -6 -7 -13 -15 -17 -8 -3 -15 -12 -15 -20 0 -8
-11 -28 -25 -45 -31 -36 -86 -142 -79 -152 2 -4 0 -10 -6 -14 -6 -4 -8 -11 -4
-16 10 -16 -16 -39 -45 -39 -27 -1 -79 -36 -68 -47 11 -10 -13 -43 -32 -43
-10 0 -24 -11 -31 -25 -7 -14 -17 -25 -22 -25 -14 0 -31 -21 -50 -62 -10 -21
-22 -38 -28 -38 -5 0 -10 -9 -10 -20 0 -11 -9 -25 -20 -32 -22 -14 -27 -54 -8
-60 15 -5 66 19 95 45 18 16 25 18 37 8 22 -18 53 -4 61 27 3 15 18 39 32 54
28 29 29 28 -24 44 -22 6 -14 41 13 59 17 11 24 22 20 33 -5 15 -4 15 8 -1 11
-14 19 -16 41 -7 15 6 29 19 32 30 7 27 17 25 43 -7 20 -26 20 -28 4 -40 -10
-7 -23 -13 -30 -13 -6 0 -14 -7 -18 -15 -3 -8 -14 -15 -25 -15 -43 0 -23 -59
25 -74 17 -5 24 -1 34 24 7 16 28 43 46 60 19 16 34 34 34 40 0 5 5 10 10 10
6 0 23 11 38 25 14 13 39 29 54 34 32 11 42 2 52 -46 3 -18 9 -46 12 -62 5
-23 2 -32 -15 -41 -12 -6 -26 -23 -32 -37 -6 -16 -14 -23 -24 -19 -19 7 -43
-17 -69 -67 -12 -24 -29 -40 -45 -44 -14 -3 -44 -20 -67 -38 -46 -38 -93 -46
-142 -26 -30 13 -35 12 -56 -8 -12 -11 -30 -21 -39 -21 -9 0 -19 -4 -22 -10
-3 -5 -16 -10 -29 -10 -12 0 -28 -6 -34 -12 -10 -10 -17 -10 -32 0 -24 15 -50
16 -50 2 0 -6 10 -15 23 -20 18 -7 19 -9 4 -9 -10 -1 -25 -8 -33 -16 -9 -8
-26 -15 -39 -15 -13 0 -27 -4 -30 -10 -3 -5 1 -10 9 -10 26 0 18 -28 -13 -44
-20 -11 -31 -12 -39 -4 -16 16 -57 2 -97 -33 l-35 -31 -36 28 c-31 25 -91 81
-220 204 -68 65 -152 157 -157 172 -3 10 -2 20 3 23 30 19 -33 175 -70 175
-26 0 -40 28 -29 59 11 27 -6 72 -47 126 -12 17 -26 44 -30 60 -4 17 -21 50
-38 75 -32 46 -57 90 -74 125 -6 12 -17 27 -26 34 -9 7 -16 18 -16 23 0 5 -9
21 -20 37 -31 41 -32 81 -3 104 16 13 21 23 14 30 -5 5 -7 16 -4 23 3 8 -1 14
-11 14 -19 0 -21 19 -3 26 19 7 67 -21 81 -47 6 -12 20 -27 31 -33 11 -6 22
-12 25 -14 2 -2 -1 -7 -8 -11 -9 -5 4 -16 41 -35 76 -37 87 -35 87 15 0 32 -4
42 -20 46 -11 3 -20 9 -20 13 0 5 -9 12 -20 15 -14 4 -19 12 -15 23 3 11 -3
21 -18 27 -15 7 -21 18 -20 33 2 12 -4 25 -11 28 -8 3 -12 12 -9 20 3 8 0 14
-6 14 -6 0 -8 6 -5 14 3 8 -3 16 -16 19 -17 4 -19 9 -10 32 9 23 7 28 -10 32
-13 4 -19 11 -16 20 3 7 -1 16 -10 20 -8 3 -13 12 -10 20 3 8 1 23 -4 34 -9
15 -7 19 7 20 12 1 9 3 -7 8 -17 5 -25 14 -25 28 0 12 -3 25 -7 29 -5 4 -8 16
-8 26 0 10 -4 18 -8 18 -5 0 -9 20 -10 45 0 32 4 45 14 45 19 0 18 16 -1 24
-8 3 -15 16 -15 30 0 13 -6 26 -12 29 -8 3 -3 9 12 15 14 6 19 11 13 11 -21 1
-15 21 6 21 11 0 26 7 35 15 16 17 30 20 21 5 -5 -8 16 -17 56 -23 8 -2 19 -6
26 -10 6 -4 14 -3 18 3 3 5 11 10 16 10 6 0 7 -4 4 -10 -3 -5 -2 -10 4 -10 5
0 12 4 16 10 11 17 57 -12 51 -32 -3 -13 3 -22 20 -28 13 -5 24 -14 24 -19 0
-5 14 -14 30 -20 17 -5 30 -15 30 -20 0 -6 8 -11 18 -11 20 -1 57 -27 57 -40
0 -10 71 -50 88 -50 5 0 25 -8 45 -17 24 -11 37 -13 39 -6 5 13 38 5 78 -19
17 -10 39 -18 49 -18 18 0 18 1 4 13 -9 6 -18 21 -20 32 -2 13 -11 20 -26 20
-12 0 -22 5 -23 10 -2 18 -21 35 -43 36 -11 1 2 5 29 10 45 8 174 -3 195 -16
4 -3 13 2 19 9 15 17 45 13 112 -16 44 -20 47 -23 29 -30 -15 -5 -20 -15 -18
-30 3 -20 8 -23 43 -21 56 2 105 14 105 24 0 5 14 9 30 9 17 0 40 9 52 20 13
12 17 20 9 20 -28 0 -121 32 -121 42 0 6 10 8 23 5 119 -30 116 -30 162 -8 25
12 49 21 54 21 5 0 13 9 16 21 6 17 13 20 36 15 24 -4 29 -2 29 14 0 10 9 21
19 25 13 4 17 12 14 25 -3 12 0 20 6 20 7 0 35 22 64 50 29 27 60 50 69 50 9
0 19 4 22 9 4 5 31 17 61 26 41 13 55 23 55 36 0 14 7 19 25 19 14 0 25 -4 25
-9z m-2130 -61 c0 -5 -7 -10 -15 -10 -8 0 -15 5 -15 10 0 6 7 10 15 10 8 0 15
-4 15 -10z m2560 -14 c0 -3 -4 -8 -10 -11 -5 -3 -10 -1 -10 4 0 6 5 11 10 11
6 0 10 -2 10 -4z m35 -106 c-12 -19 -22 -10 -22 20 0 28 1 29 14 10 8 -11 11
-25 8 -30z m-2740 0 c3 -5 1 -10 -4 -10 -6 0 -11 5 -11 10 0 6 2 10 4 10 3 0
8 -4 11 -10z m2775 -35 c0 -8 -9 -15 -19 -15 -24 0 -36 16 -19 23 24 10 38 7
38 -8z m-3226 -104 c3 -5 -5 -16 -19 -25 -24 -16 -25 -15 -25 2 0 10 3 22 7
25 9 10 31 9 37 -2z m-64 -51 c0 -5 -4 -10 -10 -10 -5 0 -10 5 -10 10 0 6 5
10 10 10 6 0 10 -4 10 -10z m227 -32 c10 -8 10 -15 0 -32 -13 -23 -16 -41 -20
-98 -1 -25 -10 -42 -28 -56 -25 -20 -25 -20 -37 -1 -10 16 -9 19 4 19 8 0 13
4 9 10 -3 5 -12 7 -20 4 -7 -3 -23 -1 -34 6 -14 7 -21 7 -21 0 0 -5 -8 -10
-17 -10 -9 0 -13 3 -10 7 4 3 2 12 -4 20 -9 10 -8 13 4 13 8 0 22 11 31 24 8
14 24 27 34 30 11 4 27 24 37 45 14 31 21 38 38 33 12 -3 28 -9 34 -14z m-327
-3 c10 -13 9 -15 -9 -15 -14 0 -21 -6 -21 -20 0 -11 -6 -20 -14 -20 -7 0 -16
-9 -19 -20 -3 -11 -10 -20 -15 -20 -13 0 -2 41 15 58 7 8 10 18 7 24 -4 6 -2
8 3 5 6 -4 13 0 17 8 7 19 20 19 36 0z m-77 -124 c3 -13 -1 -21 -15 -24 -14
-4 -18 -2 -14 10 3 8 6 19 6 24 0 17 18 9 23 -10z m157 -27 c0 -27 -17 -31
-44 -11 -25 18 -11 45 20 39 17 -3 24 -11 24 -28z m326 -79 c14 -29 9 -35 -28
-35 -23 0 -28 4 -28 24 0 23 11 33 35 35 6 1 15 -10 21 -24z m-573 -52 c-7 -2
-19 -2 -25 0 -7 3 -2 5 12 5 14 0 19 -2 13 -5z m787 -13 c11 -11 31 -20 44
-20 15 0 27 -7 30 -17 8 -29 6 -149 -3 -134 -6 8 -38 14 -102 15 -103 4 -144
-6 -135 -29 3 -8 1 -15 -4 -15 -6 0 -10 12 -10 26 0 22 -4 25 -27 22 -17 -2
-28 -9 -28 -18 0 -8 -9 -19 -21 -24 -24 -11 -29 -62 -8 -87 12 -13 11 -19 -7
-38 -16 -17 -27 -21 -48 -15 -14 4 -34 6 -43 6 -24 -1 -32 16 -18 33 7 8 8 20
4 27 -5 7 -7 23 -5 36 1 13 -2 29 -8 35 -18 23 18 157 43 157 5 0 22 11 36 25
l26 25 56 -20 c53 -19 88 -18 88 0 0 12 50 28 88 29 19 1 40 -7 52 -19z m-367
-346 c9 -10 -4 -34 -18 -34 -17 0 -28 17 -20 30 7 11 28 13 38 4z m-743 -34
c0 -5 -7 -10 -15 -10 -8 0 -15 5 -15 10 0 6 7 10 15 10 8 0 15 -4 15 -10z
m795 -29 c0 -8 -4 -16 -10 -18 -16 -5 -38 14 -30 26 9 16 40 9 40 -8z m-810
-1 c3 -5 1 -10 -4 -10 -6 0 -11 5 -11 10 0 6 2 10 4 10 3 0 8 -4 11 -10z m750
1 c7 -13 -32 -34 -46 -26 -7 5 -6 11 2 21 13 16 35 18 44 5z m2815 -80 c0 -44
12 -58 54 -63 16 -1 31 -8 33 -14 5 -16 -37 -25 -72 -15 -29 7 -30 9 -33 75
-2 45 1 66 8 61 5 -3 10 -23 10 -44z m-3562 15 c3 -12 -1 -17 -10 -14 -7 3
-15 13 -16 22 -3 12 1 17 10 14 7 -3 15 -13 16 -22z m2 -46 c0 -5 -9 -10 -20
-10 -11 0 -20 5 -20 10 0 6 9 10 20 10 11 0 20 -4 20 -10z m867 -44 c4 -6 6
-25 4 -43 -2 -23 3 -34 18 -43 29 -15 26 -31 -9 -55 -23 -16 -28 -25 -23 -44
3 -14 2 -22 -4 -18 -5 3 -24 -3 -41 -14 -18 -10 -44 -19 -58 -19 -13 0 -27 -7
-30 -15 -4 -8 -10 -15 -16 -15 -5 0 -6 5 -3 10 3 6 1 10 -4 10 -6 0 -11 6 -11
13 0 14 -21 27 -75 48 l-30 12 31 7 c47 10 54 18 53 58 -1 20 5 54 12 75 14
36 15 37 62 35 26 0 52 3 58 9 12 12 57 5 66 -11z m3020 -25 c14 -1 20 -6 17
-14 -6 -18 -184 -21 -184 -3 0 7 2 15 5 18 4 4 80 4 162 -1z m199 -3 c4 -6 -1
-17 -11 -24 -15 -12 -20 -11 -31 4 -7 9 -14 20 -14 25 0 12 48 8 56 -5z
m-4069 -13 c17 -4 41 -17 52 -29 l21 -22 -30 -18 c-32 -18 -40 -46 -15 -46 8
0 15 -7 15 -15 0 -8 4 -15 9 -15 5 0 16 -3 24 -6 9 -3 16 3 20 15 7 28 57 30
57 2 0 -11 3 -26 6 -35 4 -10 -2 -19 -19 -27 -20 -9 -30 -8 -50 6 -25 16 -28
15 -71 -10 -25 -15 -46 -31 -46 -36 0 -15 -40 -31 -53 -21 -21 16 -67 23 -87
12 -11 -6 -20 -7 -20 -2 0 4 -15 13 -32 20 -18 7 -41 19 -52 27 -17 13 -17 15
-2 30 24 25 20 54 -9 61 -14 4 -28 4 -31 1 -9 -8 -8 -48 0 -79 7 -23 5 -28
-16 -33 -12 -3 -42 -2 -65 2 -35 7 -41 11 -32 23 8 11 12 12 16 3 9 -23 19
-14 32 25 21 63 13 77 -41 77 -69 1 -69 12 0 26 34 7 59 16 56 21 -9 15 34 8
50 -8 14 -13 21 -13 51 -3 19 7 47 25 61 40 24 25 31 26 97 24 40 -2 86 -7
104 -10z m543 -12 c2 -2 4 -25 3 -51 -1 -25 3 -52 9 -60 9 -10 6 -18 -11 -35
-22 -22 -22 -22 -37 -2 -10 13 -12 29 -8 45 4 14 6 33 6 43 0 9 5 17 11 18 7
0 -1 7 -18 14 -25 11 -35 11 -65 -2 -33 -14 -98 -19 -109 -7 -10 10 24 24 60
24 19 0 39 4 45 9 18 17 95 20 114 4z m3380 13 c0 -3 -4 -8 -10 -11 -5 -3 -10
-1 -10 4 0 6 5 11 10 11 6 0 10 -2 10 -4z m-3762 -60 c-2 -14 -11 -22 -30 -24
-22 -3 -29 2 -34 22 -9 37 1 47 37 34 23 -8 29 -16 27 -32z m73 13 c11 -5 17
-14 14 -20 -9 -14 -52 -11 -58 5 -10 26 11 33 44 15z m742 -24 c0 -6 -7 -11
-16 -13 -12 -3 -15 1 -11 13 7 17 25 17 27 0z m-1889 -67 c7 -12 6 -24 -3 -42
-12 -22 -12 -29 3 -50 16 -25 15 -26 -11 -39 -16 -8 -39 -18 -53 -22 -14 -4
-42 -19 -63 -33 -48 -32 -65 -21 -47 32 6 20 9 48 6 64 -7 34 15 65 69 92 46
23 83 22 99 -2z m1262 -27 c-3 -4 6 -6 21 -3 16 3 24 1 20 -5 -9 -14 -77 -22
-84 -10 -6 10 15 27 35 27 7 0 11 -4 8 -9z m1432 -63 c29 -29 52 -58 52 -64 0
-7 8 -15 18 -18 16 -5 52 -54 52 -70 0 -12 -41 -6 -71 10 -23 11 -30 21 -26
35 4 15 0 19 -24 19 -31 0 -71 34 -63 55 3 7 -4 20 -16 28 -16 11 -20 21 -15
36 10 34 38 25 93 -31z m-2553 13 c-5 -15 -1 -18 22 -13 40 7 17 -16 -25 -24
-36 -7 -54 15 -32 41 18 22 43 19 35 -4z m165 -1 c0 -5 -15 -10 -34 -10 -19 0
-41 -3 -50 -6 -9 -3 -16 -1 -16 4 0 6 17 13 38 15 20 2 43 4 50 5 6 1 12 -2
12 -8z m1436 -32 c5 -7 9 -56 10 -109 1 -53 4 -101 6 -105 9 -16 -12 -74 -27
-74 -16 0 -16 -1 -19 115 -1 44 -5 86 -10 93 -5 9 -24 12 -53 10 -38 -2 -48 1
-60 20 -14 20 -14 22 1 16 11 -4 16 -1 16 10 0 9 5 16 11 16 6 0 8 -7 5 -16
-5 -13 -2 -15 16 -9 13 3 30 7 38 7 8 1 21 9 28 20 15 21 28 23 38 6z m3094
-28 c0 -5 -4 -10 -10 -10 -5 0 -10 5 -10 10 0 6 5 10 10 10 6 0 10 -4 10 -10z
m-3951 -39 l21 -29 -21 -14 c-20 -13 -25 -40 -17 -108 3 -31 -2 -60 -11 -60
-16 0 -35 67 -22 75 10 6 6 74 -5 85 -9 9 -36 13 -67 11 -15 -1 -17 -12 -15
-109 0 -60 -2 -114 -6 -121 -4 -6 -3 -18 3 -25 8 -10 7 -21 -4 -42 -8 -16 -15
-39 -15 -52 0 -17 -5 -22 -17 -20 -10 2 -16 11 -14 19 4 18 5 50 2 124 -4 94
11 248 25 270 8 11 14 14 14 7 0 -16 37 -15 75 3 44 20 51 18 74 -14z m726
-152 c4 -5 8 -27 9 -47 2 -46 13 -64 34 -60 19 3 22 -2 22 -34 -1 -21 -2 -22
-14 -5 -12 15 -14 10 -20 -41 -5 -43 -12 -61 -28 -71 -17 -11 -23 -10 -35 2
-12 12 -13 21 -2 56 9 31 9 50 2 76 -7 21 -7 37 -2 41 5 3 9 11 8 17 -7 56 9
95 26 66z m2642 -77 c-3 -15 -2 -34 3 -42 5 -8 2 -22 -7 -37 -8 -13 -12 -23
-9 -23 4 0 4 -5 1 -11 -10 -15 -35 38 -35 74 0 30 24 67 43 67 5 0 7 -13 4
-28z m-137 -12 c0 -5 -5 -10 -11 -10 -5 0 -7 5 -4 10 3 6 8 10 11 10 2 0 4 -4
4 -10z m63 -25 c-7 -21 -13 -19 -13 6 0 11 4 18 10 14 5 -3 7 -12 3 -20z m-53
-40 c0 -8 -7 -15 -15 -15 -8 0 -15 7 -15 15 0 8 7 15 15 15 8 0 15 -7 15 -15z
m-2410 -71 l-11 -29 -19 25 c-25 32 -25 38 3 42 32 6 39 -5 27 -38z m-977 -68
c19 -15 14 -41 -11 -51 -23 -9 -42 15 -31 43 10 25 17 27 42 8z m2162 -94 c13
-11 21 -32 23 -60 3 -48 26 -92 48 -92 8 0 14 5 14 10 0 6 5 10 10 10 6 0 10
-7 10 -15 0 -8 6 -15 13 -15 9 0 9 -2 -1 -9 -8 -4 -13 -11 -13 -15 1 -3 -1 -6
-4 -6 -41 0 -53 3 -73 18 -13 10 -24 25 -26 32 -2 8 -6 22 -9 30 -44 117 -41
154 8 112z m-2715 -152 c-8 -5 -31 -10 -50 -10 -26 0 -31 3 -20 10 8 5 31 10
50 10 26 0 31 -3 20 -10z m2908 -54 c6 -45 -15 -55 -32 -15 -16 38 -12 52 12
47 10 -2 18 -15 20 -32z m-3118 -288 c0 -6 -6 -5 -15 2 -8 7 -15 14 -15 16 0
2 7 1 15 -2 8 -4 15 -11 15 -16z m-220 -26 c0 -14 -11 -21 -26 -15 -8 3 -11 9
-8 14 7 11 34 12 34 1z m134 -58 c8 -3 12 -12 9 -19 -5 -14 41 -65 59 -65 4 0
6 -11 2 -25 -5 -19 -1 -27 18 -35 32 -15 51 -65 35 -91 -16 -26 -40 -24 -52 3
-7 15 -22 25 -45 29 -48 8 -75 24 -105 64 -31 40 -27 53 15 47 18 -2 30 0 30
7 0 6 -5 11 -11 11 -7 0 -9 8 -4 23 4 12 7 30 6 40 0 17 15 22 43 11z m831
-42 c-3 -3 -11 0 -18 7 -9 10 -8 11 6 5 10 -3 15 -9 12 -12z m-995 -32 c0 -5
-4 -10 -10 -10 -5 0 -10 5 -10 10 0 6 5 10 10 10 6 0 10 -4 10 -10z m1006 -25
c0 -14 -7 -25 -13 -25 -11 0 -12 20 -4 48 1 1 5 2 10 2 5 0 8 -11 7 -25z
m1562 -58 c2 -9 -3 -17 -10 -17 -8 0 -14 9 -15 21 -2 24 20 20 25 -4z m152 -4
c0 -13 -3 -13 -15 -3 -8 7 -15 16 -15 21 0 5 7 6 15 3 8 -4 15 -13 15 -21z
m-1700 -22 c0 -5 -11 -11 -24 -13 -17 -4 -23 -1 -19 9 6 14 43 18 43 4z m47
-183 c42 -19 68 -50 65 -78 -2 -14 -4 -47 -6 -75 -4 -68 -3 -64 -31 -75 -14
-5 -29 -18 -32 -27 -8 -21 -19 -33 -54 -55 -24 -16 -27 -15 -42 3 -10 11 -17
24 -17 29 0 6 -11 16 -25 22 -28 13 -31 44 -5 65 13 11 13 14 1 22 -16 10 -9
63 14 108 8 15 15 33 15 39 0 33 64 45 117 22z m193 -28 c0 -5 -4 -10 -10 -10
-5 0 -10 5 -10 10 0 6 5 10 10 10 6 0 10 -4 10 -10z"/>
<path d="M4234 5542 c5 -8 -2 -14 -23 -18 -17 -4 -36 -13 -42 -20 -6 -8 -17
-14 -24 -14 -30 0 -54 -64 -32 -86 3 -4 -5 -15 -18 -26 -21 -16 -23 -22 -12
-39 15 -24 26 -24 43 -2 8 12 9 22 3 30 -15 17 15 69 43 77 39 10 44 7 78 -45
18 -28 43 -56 57 -62 38 -17 83 13 112 73 13 28 27 50 33 50 17 0 88 -45 88
-56 0 -6 -11 -21 -24 -33 -44 -42 -26 -52 88 -46 134 6 136 7 136 64 0 61 -7
69 -66 80 -27 6 -65 15 -84 21 -19 5 -50 10 -68 10 -18 0 -41 4 -51 10 -10 5
-63 12 -117 16 -55 4 -105 12 -113 18 -11 8 -13 8 -7 -2z m126 -102 c0 -5 -4
-10 -9 -10 -6 0 -13 5 -16 10 -3 6 1 10 9 10 9 0 16 -4 16 -10z"/>
<path d="M3543 4744 c-4 -11 1 -22 13 -31 16 -12 19 -12 22 1 2 10 14 16 29
16 21 0 24 2 13 15 -17 20 -69 19 -77 -1z"/>
<path d="M4000 4739 c0 -14 30 -31 45 -25 25 9 17 23 -15 28 -16 3 -30 1 -30
-3z"/>
<path d="M3471 4643 c-6 -13 -15 -23 -21 -23 -5 0 -10 -10 -10 -21 0 -18 -4
-21 -32 -16 -22 4 -66 -5 -133 -28 -55 -18 -112 -36 -127 -39 -16 -4 -28 -12
-28 -20 0 -7 -15 -32 -34 -56 -30 -38 -32 -45 -22 -73 22 -62 39 -70 91 -43
24 13 29 12 46 -5 10 -10 26 -19 35 -19 9 0 31 -9 49 -20 38 -23 135 -25 135
-3 0 7 9 13 19 13 27 0 36 32 14 47 -10 7 -23 17 -30 23 -7 5 -18 8 -25 5 -17
-7 -77 44 -60 51 6 3 10 10 7 14 -12 19 35 29 111 24 98 -8 126 -6 134 5 3 5
17 12 31 16 13 3 30 14 36 24 13 21 6 61 -9 61 -6 0 -8 9 -5 20 3 11 1 20 -4
20 -5 0 -9 8 -9 18 0 35 -32 52 -92 50 -49 -1 -58 -5 -67 -25z m-160 -262
c-12 -8 -51 -4 -51 5 0 2 15 4 33 4 22 0 28 -3 18 -9z"/>
<path d="M3980 4635 c0 -8 -8 -16 -18 -19 -25 -8 -55 -76 -40 -93 6 -7 16 -13
24 -13 7 0 14 -10 16 -22 3 -22 8 -23 88 -24 47 0 100 -4 118 -8 21 -5 32 -4
32 3 0 18 36 12 55 -9 10 -11 14 -20 9 -20 -5 0 10 -10 33 -22 22 -11 47 -31
54 -44 7 -13 16 -24 19 -24 4 0 24 -13 45 -30 30 -24 39 -27 50 -17 25 26 -5
138 -49 179 -16 15 -33 28 -38 28 -5 0 -16 7 -24 15 -11 10 -39 15 -92 16
-108 2 -105 1 -122 33 -20 39 -47 66 -65 66 -8 0 -15 3 -15 8 0 4 -18 8 -40 9
-27 1 -40 -3 -40 -12z"/>
<path d="M3660 4580 c0 -5 7 -10 16 -10 8 0 12 5 9 10 -3 6 -10 10 -16 10 -5
0 -9 -4 -9 -10z"/>
<path d="M4235 4330 c-4 -6 -15 -8 -26 -5 -13 5 -19 2 -17 -7 2 -8 -5 -12 -19
-11 -32 4 -29 -8 11 -39 44 -36 55 -35 95 4 l33 32 -22 18 c-25 20 -46 23 -55
8z"/>
<path d="M3800 3020 c0 -5 5 -10 10 -10 6 0 10 5 10 10 0 6 -4 10 -10 10 -5 0
-10 -4 -10 -10z"/>
<path d="M3720 3010 c0 -5 6 -10 14 -10 8 0 18 5 21 10 3 6 -3 10 -14 10 -12
0 -21 -4 -21 -10z"/>
<path d="M2249 2773 c-11 -3 -14 -12 -11 -32 3 -26 9 -30 43 -33 35 -3 39 -1
39 19 0 15 -6 23 -16 23 -9 0 -22 6 -28 13 -6 8 -18 12 -27 10z"/>
<path d="M2145 2690 c-3 -5 -1 -10 4 -10 6 0 11 5 11 10 0 6 -2 10 -4 10 -3 0
-8 -4 -11 -10z"/>
<path d="M950 2100 c-9 -6 -10 -10 -3 -10 6 0 15 5 18 10 8 12 4 12 -15 0z"/>
<path d="M1095 1970 c3 -5 8 -10 11 -10 2 0 4 5 4 10 0 6 -5 10 -11 10 -5 0
-7 -4 -4 -10z"/>
<path d="M2155 5392 c-11 -52 27 -162 55 -162 12 0 13 43 3 54 -8 8 -14 50
-14 104 0 43 -34 46 -44 4z"/>
<path d="M5640 3080 c0 -5 7 -10 16 -10 8 0 12 5 9 10 -3 6 -10 10 -16 10 -5
0 -9 -4 -9 -10z"/>
<path d="M5657 3043 c-4 -4 -4 -22 -1 -40 8 -40 -3 -42 -31 -6 -14 16 -26 23
-34 19 -9 -6 -7 -14 8 -30 12 -12 18 -26 14 -30 -5 -4 -1 -7 7 -6 39 6 51 -10
55 -78 2 -26 -4 -38 -29 -57 -23 -18 -34 -21 -43 -13 -8 6 -16 9 -18 6 -3 -3
15 -22 41 -43 25 -21 57 -49 70 -62 26 -26 49 -22 58 9 4 18 7 19 21 8 9 -8
15 -23 13 -35 -4 -18 0 -20 29 -17 23 3 35 0 39 -12 4 -9 18 -16 34 -16 16 0
32 -5 36 -11 3 -6 18 -9 32 -6 19 4 32 -2 51 -23 18 -20 39 -30 69 -34 23 -3
42 -1 42 5 0 5 7 9 15 9 8 0 15 -9 15 -20 0 -25 35 -34 91 -23 40 8 44 12 49
43 9 55 1 72 -54 119 -72 61 -169 131 -182 131 -6 0 -17 6 -23 13 -6 8 -32 24
-58 37 -27 13 -69 39 -96 57 -26 18 -56 33 -67 33 -12 0 -26 4 -33 10 -7 5
-28 23 -48 40 -36 29 -59 37 -72 23z"/>
<path d="M5195 3020 c4 -7 2 -16 -5 -20 -8 -5 -3 -9 14 -12 32 -6 36 16 5 33
-17 8 -20 8 -14 -1z"/>
<path d="M5565 2930 c3 -5 8 -10 11 -10 2 0 4 5 4 10 0 6 -5 10 -11 10 -5 0
-7 -4 -4 -10z"/>
<path d="M5607 2921 c-3 -11 -2 -22 1 -25 8 -9 32 14 32 30 0 21 -27 17 -33
-5z"/>
<path d="M5595 2870 c3 -5 8 -10 11 -10 2 0 4 5 4 10 0 6 -5 10 -11 10 -5 0
-7 -4 -4 -10z"/>
<path d="M5454 2715 c3 -9 -1 -18 -9 -21 -7 -3 -11 -12 -9 -19 3 -7 0 -16 -5
-20 -6 -3 -8 -12 -4 -18 4 -7 8 -55 9 -107 2 -129 10 -197 29 -249 8 -24 15
-61 15 -81 0 -33 -4 -39 -30 -49 -33 -11 -36 -20 -17 -54 23 -42 79 -79 94
-63 4 3 12 1 20 -5 7 -7 45 -13 83 -13 49 -2 75 -7 88 -19 14 -13 25 -15 50
-8 27 8 34 6 46 -11 8 -11 12 -27 9 -34 -3 -9 2 -14 18 -14 12 0 19 -3 15 -7
-4 -5 -13 -8 -19 -8 -7 0 -13 -10 -13 -23 -1 -17 3 -21 15 -17 9 3 33 -4 54
-15 34 -19 37 -19 38 -3 1 10 1 22 0 27 -5 24 -2 106 4 125 5 17 9 18 24 9 20
-12 75 -3 66 12 -3 5 5 10 17 12 21 3 23 9 24 58 1 30 2 58 3 62 1 4 11 4 24
-1 12 -5 21 -15 19 -24 -3 -18 24 -42 32 -28 4 6 13 8 21 4 10 -3 15 2 15 16
0 12 5 21 10 21 17 0 -18 58 -44 76 -14 8 -32 14 -42 12 -24 -4 -34 40 -32
136 l2 79 -39 33 c-22 19 -45 34 -51 34 -6 0 -23 11 -37 24 -31 29 -129 80
-186 97 -22 7 -41 16 -41 21 0 4 -17 8 -38 8 -21 0 -47 7 -58 15 -25 19 -44
19 -59 -1 -10 -14 -13 -13 -28 10 -14 21 -23 25 -42 20 -15 -4 -25 -2 -25 5 0
6 -5 11 -11 11 -6 0 -8 -7 -5 -15z m671 -504 c17 -7 17 -8 -8 -15 -30 -7 -51
0 -42 15 7 11 22 11 50 0z m-260 -269 c-3 -3 -11 0 -18 7 -9 10 -8 11 6 5 10
-3 15 -9 12 -12z m20 -52 c3 -5 1 -10 -4 -10 -6 0 -11 5 -11 10 0 6 2 10 4 10
3 0 8 -4 11 -10z"/>
<path d="M5377 2693 c-14 -13 -6 -23 18 -23 28 0 34 15 9 24 -19 7 -19 7 -27
-1z"/>
<path d="M6346 2584 c-3 -8 -11 -12 -17 -8 -24 15 11 -34 37 -51 20 -13 31
-15 48 -7 11 6 15 11 9 11 -7 1 -13 8 -13 16 0 8 -9 15 -20 15 -13 0 -20 7
-20 20 0 24 -15 27 -24 4z"/>
<path d="M6438 2593 c-24 -6 -23 -20 3 -33 14 -8 19 -20 18 -38 -3 -46 0 -62
16 -62 8 0 19 -9 25 -20 8 -16 21 -20 60 -20 38 0 52 -4 59 -19 6 -10 23 -22
38 -26 16 -3 42 -17 60 -31 17 -13 38 -22 45 -19 7 3 27 -7 44 -22 17 -16 52
-39 78 -52 26 -13 52 -33 57 -43 5 -10 19 -18 30 -18 11 0 18 -4 14 -9 -3 -5
0 -13 6 -17 18 -11 0 59 -19 74 -32 24 -84 67 -115 95 -18 15 -42 30 -54 33
-13 3 -23 10 -23 14 0 5 -14 11 -30 15 -17 4 -28 10 -25 15 2 4 -13 20 -35 35
-22 15 -40 31 -40 35 0 4 -11 11 -24 14 -13 3 -47 22 -76 41 -29 19 -55 35
-58 35 -3 0 -13 6 -21 13 -9 8 -24 12 -33 10z"/>
<path d="M6130 2456 c0 -2 7 -6 15 -10 8 -3 15 -1 15 4 0 6 -7 10 -15 10 -8 0
-15 -2 -15 -4z"/>
<path d="M6127 2403 c-14 -13 -7 -30 16 -40 22 -10 23 -9 19 18 -4 27 -20 37
-35 22z"/>
<path d="M6218 2313 c19 -37 23 -86 8 -102 -13 -14 -11 -23 10 -68 19 -42 22
-58 14 -78 -13 -35 -15 -30 31 -80 39 -43 62 -49 81 -21 4 6 14 4 27 -8 14
-13 31 -17 60 -14 21 2 37 0 35 -3 -2 -4 9 -9 24 -12 65 -13 91 -20 155 -39
58 -18 67 -24 67 -44 0 -14 -6 -24 -15 -24 -17 0 -10 -29 11 -46 11 -9 7 -18
-19 -47 -31 -35 -67 -49 -67 -27 0 6 -20 10 -45 10 -31 0 -47 5 -51 15 -9 22
-51 19 -59 -5 -6 -20 -25 -28 -25 -10 0 5 -9 14 -19 20 -15 7 -23 6 -35 -6
-20 -20 -32 -12 -39 26 -6 26 -11 30 -39 30 -28 -1 -36 -6 -49 -35 -9 -18 -12
-39 -8 -47 4 -7 7 -131 6 -275 -2 -255 -1 -262 18 -265 11 -2 26 -15 33 -30
15 -33 35 -36 55 -8 14 19 14 19 37 -5 13 -14 19 -26 14 -26 -20 -3 76 -21
164 -31 57 -7 92 -16 92 -23 0 -24 48 -57 92 -61 l43 -4 -35 11 c-30 9 -32 13
-19 22 18 14 14 37 -6 37 -24 0 -23 24 2 57 18 25 22 37 14 52 -6 10 -7 21 -4
25 14 14 40 4 53 -19 15 -28 30 -17 30 23 0 12 4 22 9 22 17 0 22 50 6 74 -13
20 -14 25 -1 35 16 14 25 5 41 -44 8 -23 17 -31 45 -35 19 -4 45 -11 56 -18
24 -13 34 -7 34 21 0 16 3 17 15 7 13 -11 15 29 15 350 l0 362 -25 -6 c-30 -8
-31 -2 -5 26 15 16 17 25 9 35 -6 7 -8 13 -5 13 14 0 -16 41 -37 51 -12 5 -40
20 -62 34 -22 13 -51 30 -65 37 -14 7 -27 15 -30 19 -3 3 -23 9 -44 12 -22 4
-42 10 -45 14 -12 17 -60 35 -76 29 -9 -3 -18 0 -22 10 -3 8 -11 13 -17 11 -7
-3 -23 1 -37 9 -13 7 -36 13 -50 14 -21 0 -28 7 -35 33 -9 30 -13 32 -49 30
-21 -2 -41 -7 -44 -12 -14 -21 -52 -22 -77 -2 -21 16 -41 21 -91 21 -57 0 -63
-2 -55 -17z m149 -265 c-3 -8 -6 -5 -6 6 -1 11 2 17 5 13 3 -3 4 -12 1 -19z
m578 -126 c6 -4 17 -20 25 -36 17 -34 36 -32 32 2 -3 16 3 25 20 31 25 10 42
5 32 -10 -3 -5 -10 -7 -15 -4 -9 6 -12 -8 -10 -60 5 -206 4 -237 -8 -244 -8
-5 -11 -17 -6 -30 5 -17 2 -21 -14 -21 -11 0 -23 -5 -26 -10 -7 -11 -26 -8
-77 11 -28 11 -43 46 -28 64 5 6 5 17 1 24 -5 7 -7 21 -4 30 2 9 -3 30 -11 46
-18 33 -21 81 -7 90 6 3 10 13 10 23 1 53 7 67 29 70 13 2 26 10 29 18 6 16
13 17 28 6z m-160 -72 c3 -5 -1 -10 -10 -10 -9 0 -13 5 -10 10 3 6 8 10 10 10
2 0 7 -4 10 -10z m15 -242 c0 -7 3 -23 6 -35 5 -17 2 -23 -10 -23 -12 0 -16 9
-16 35 0 19 5 35 10 35 6 0 10 -6 10 -12z m90 -108 c0 -15 -7 -20 -25 -20 -24
0 -34 18 -18 33 15 15 43 7 43 -13z m-74 -47 c-11 -11 -17 4 -9 23 7 18 8 18
11 1 2 -10 1 -21 -2 -24z m34 -28 c0 -8 -7 -11 -20 -8 -23 6 -26 19 -7 26 16
6 27 -1 27 -18z m-435 -103 c-3 -3 -11 0 -18 7 -9 10 -8 11 6 5 10 -3 15 -9
12 -12z m3 -110 c2 -7 -3 -12 -12 -12 -9 0 -16 7 -16 16 0 17 22 14 28 -4z"/>
<path d="M6118 2263 c6 -2 18 -2 25 0 6 3 1 5 -13 5 -14 0 -19 -2 -12 -5z"/>
<path d="M5480 1822 c0 -4 -18 -15 -40 -25 -22 -9 -40 -19 -40 -21 0 -2 6 -16
14 -31 10 -19 11 -36 5 -58 -6 -21 -4 -48 5 -83 8 -29 10 -54 5 -56 -23 -8 -1
-176 25 -190 23 -13 21 -59 -4 -65 -29 -8 -25 -39 10 -70 17 -14 30 -35 30
-45 0 -25 37 -24 45 2 3 11 10 20 14 20 4 0 5 21 1 48 -3 26 -6 65 -5 87 3 88
5 108 10 103 8 -8 18 -115 16 -175 -2 -58 20 -106 45 -96 8 3 14 0 14 -7 0 -6
5 -8 13 -3 23 14 41 12 55 -8 11 -16 17 -17 28 -8 11 9 17 9 28 -1 8 -6 30
-11 48 -9 18 1 40 0 48 -3 91 -30 91 -30 110 -13 18 16 48 11 49 -7 1 -5 4 -7
8 -5 5 1 7 7 5 13 -1 6 16 14 39 17 55 7 73 25 60 60 -7 18 -18 27 -33 28
l-23 0 23 9 c20 9 28 28 22 55 -1 6 -1 37 -1 70 2 99 1 109 -12 118 -7 5 -8
10 -2 13 13 5 10 135 -3 160 -5 11 -7 34 -5 52 3 20 1 32 -6 32 -6 0 -11 5
-11 11 0 5 5 7 10 4 6 -3 10 -1 10 4 0 6 -6 11 -14 11 -18 0 -65 39 -48 40 23
0 2 20 -22 20 -14 0 -27 -9 -33 -22 l-11 -23 -13 28 c-13 28 -13 28 -78 20
-77 -9 -186 -8 -253 2 -41 7 -47 5 -58 -15 l-12 -22 -22 21 c-22 21 -46 28
-46 13z m80 -132 c0 -11 -4 -20 -9 -20 -14 0 -23 18 -16 30 10 17 25 11 25
-10z m0 -120 c0 -11 -4 -20 -10 -20 -5 0 -10 9 -10 20 0 11 5 20 10 20 6 0 10
-9 10 -20z m422 -102 c-9 -9 -12 -7 -12 12 0 19 3 21 12 12 9 -9 9 -15 0 -24z
m-412 2 c0 -5 -4 -10 -10 -10 -5 0 -10 5 -10 10 0 6 5 10 10 10 6 0 10 -4 10
-10z m420 -96 c0 -8 -4 -12 -10 -9 -5 3 -10 10 -10 16 0 5 5 9 10 9 6 0 10 -7
10 -16z m-13 -156 c-3 -8 -6 -5 -6 6 -1 11 2 17 5 13 3 -3 4 -12 1 -19z"/>
<path d="M6210 1703 c0 -14 1 -24 3 -22 1 2 8 11 15 20 10 14 10 18 -3 23 -11
4 -15 -1 -15 -21z"/>
<path d="M6216 1615 c-3 -8 -1 -15 4 -15 6 0 10 7 10 15 0 8 -2 15 -4 15 -2 0
-6 -7 -10 -15z"/>
<path d="M6218 1544 c-3 -5 -2 -18 2 -28 5 -16 8 -17 12 -4 7 16 -7 45 -14 32z"/>
<path d="M2750 1490 c0 -5 4 -10 9 -10 6 0 13 5 16 10 3 6 -1 10 -9 10 -9 0
-16 -4 -16 -10z"/>
<path d="M6217 1483 c-4 -3 -8 -20 -8 -37 -1 -18 -3 -23 -6 -13 -4 14 -8 16
-19 6 -21 -17 -17 -50 6 -56 11 -3 20 -9 20 -14 0 -12 -17 -11 -25 1 -9 15
-25 2 -25 -20 0 -13 5 -17 14 -14 8 3 17 1 21 -5 11 -19 25 -12 25 13 0 14 4
36 10 50 5 14 5 28 1 30 -5 3 -7 19 -5 36 4 31 2 35 -9 23z"/>
<path d="M4460 1370 c0 -5 5 -10 10 -10 6 0 10 5 10 10 0 6 -4 10 -10 10 -5 0
-10 -4 -10 -10z"/>
<path d="M2150 1298 c0 -7 5 -20 10 -28 9 -13 11 -13 20 0 5 8 8 20 7 25 -5
15 -37 18 -37 3z"/>
<path d="M2308 1285 c-6 -29 12 -48 36 -39 19 7 21 35 4 52 -19 19 -35 14 -40
-13z"/>
<path d="M6166 1301 c-6 -10 43 -26 52 -16 7 7 2 11 -25 19 -12 4 -24 3 -27
-3z"/>
<path d="M5335 1280 c3 -5 8 -10 11 -10 2 0 4 5 4 10 0 6 -5 10 -11 10 -5 0
-7 -4 -4 -10z"/>
<path d="M6190 1266 c0 -2 7 -9 15 -16 9 -7 15 -8 15 -2 0 5 -7 12 -15 16 -8
3 -15 4 -15 2z"/>
<path d="M1677 1224 c-23 -21 -32 -24 -55 -16 -18 6 -35 5 -51 -2 -20 -8 -26
-7 -41 12 -21 26 -45 21 -76 -16 -14 -18 -26 -23 -39 -19 -14 6 -15 10 -5 22
15 18 7 30 -15 22 -18 -8 -20 -51 -2 -65 6 -5 27 -12 45 -14 28 -4 35 -1 43
19 5 12 15 23 23 23 15 0 29 -27 21 -40 -8 -12 27 -22 39 -10 5 5 21 10 33 10
13 0 34 11 47 23 18 18 32 23 55 19 29 -4 30 -2 28 27 -2 38 -14 39 -50 5z"/>
<path d="M6159 1198 c0 -2 -2 -12 -3 -24 -2 -17 2 -20 18 -16 25 6 46 21 46
33 0 8 -58 14 -61 7z"/>
<path d="M3894 1142 c-8 -42 7 -60 30 -37 12 13 26 15 50 11 25 -5 35 -3 40 9
3 8 12 15 21 15 18 0 20 16 4 26 -6 4 -40 7 -75 8 l-64 1 -6 -33z m51 8 c3 -5
-3 -10 -14 -10 -12 0 -21 5 -21 10 0 6 6 10 14 10 8 0 18 -4 21 -10z"/>
<path d="M4070 1170 c0 -5 7 -10 15 -10 8 0 15 5 15 10 0 6 -7 10 -15 10 -8 0
-15 -4 -15 -10z"/>
<path d="M3800 1160 c0 -5 7 -10 15 -10 8 0 15 5 15 10 0 6 -7 10 -15 10 -8 0
-15 -4 -15 -10z"/>
<path d="M3818 1124 c-5 -4 -8 -20 -8 -35 0 -15 -4 -31 -10 -34 -5 -3 -10 -17
-10 -31 0 -13 -4 -24 -9 -24 -4 0 -20 -12 -35 -26 -21 -22 -26 -36 -26 -76 0
-30 5 -51 13 -53 12 -5 14 -59 8 -280 -2 -49 2 -103 8 -118 9 -22 8 -31 -4
-43 -19 -19 -11 -36 25 -58 17 -9 28 -22 25 -27 -4 -5 1 -12 10 -15 30 -12 41
22 39 119 -3 98 5 221 14 212 3 -3 6 -62 8 -133 1 -70 7 -140 13 -155 6 -16
11 -32 11 -37 0 -5 30 -7 68 -4 37 3 79 5 95 6 20 1 27 6 27 20 0 19 1 19 29
-1 48 -34 117 -24 149 21 13 18 14 18 31 -4 10 -13 20 -29 22 -37 4 -11 8 -11
21 3 9 9 26 16 37 16 12 0 21 1 21 3 0 1 6 20 14 41 11 32 11 45 1 69 -7 18
-10 41 -5 56 4 14 6 58 4 96 -2 39 -4 122 -5 185 -1 63 -7 121 -12 128 -6 8
-6 17 1 25 15 18 4 54 -18 60 -13 3 -17 11 -13 26 4 15 1 21 -11 21 -9 0 -19
7 -22 15 -5 12 -8 11 -23 -3 -10 -9 -21 -25 -24 -34 -9 -26 -26 -22 -39 8 -11
23 -16 24 -50 19 -27 -5 -50 -2 -75 10 -30 15 -42 16 -68 6 -17 -6 -47 -11
-66 -11 -19 0 -40 -5 -47 -12 -8 -8 -15 -8 -27 2 -14 12 -18 11 -26 -1 -5 -8
-9 -22 -9 -31 0 -21 -18 -24 -25 -5 -3 6 -8 38 -13 70 -4 32 -10 55 -14 51z
m42 -234 c0 -5 -4 -10 -10 -10 -5 0 -10 5 -10 10 0 6 5 10 10 10 6 0 10 -4 10
-10z m1 -233 c-13 -13 -20 5 -13 38 l5 30 8 -30 c5 -16 5 -33 0 -38z m419
-197 c0 -11 -4 -20 -10 -20 -5 0 -10 9 -10 20 0 11 5 20 10 20 6 0 10 -9 10
-20z"/>
<path d="M7040 1118 c0 -7 5 -20 10 -28 12 -20 33 0 24 23 -7 20 -34 23 -34 5z"/>
<path d="M1920 1075 c-7 -9 -11 -17 -9 -19 11 -9 69 -14 69 -7 0 5 3 16 6 25
8 22 -48 22 -66 1z"/>
<path d="M4845 1053 c-44 -5 -105 -25 -105 -35 0 -18 -42 -7 -47 12 -6 23 -28
27 -36 6 -3 -8 -22 -22 -41 -31 -41 -20 -44 -32 -17 -61 13 -15 16 -25 10 -37
-14 -24 -21 -373 -9 -418 6 -21 17 -44 25 -52 12 -12 10 -16 -11 -25 -13 -7
-24 -16 -24 -21 0 -12 29 -41 41 -41 5 0 14 -12 19 -26 13 -33 30 -27 54 19
22 41 26 40 42 -6 12 -36 43 -44 82 -20 15 10 27 11 35 5 7 -6 46 -13 87 -17
155 -14 171 -14 177 1 7 20 21 17 28 -6 4 -14 15 -20 34 -20 48 0 58 27 51
135 -1 11 0 54 2 95 2 41 0 93 -4 114 -6 24 -5 43 1 49 7 7 6 17 -1 31 -7 12
-11 50 -9 85 2 43 -1 61 -8 56 -7 -4 -11 4 -11 20 0 14 4 24 9 21 12 -8 19 15
12 42 -7 25 -51 52 -87 52 -15 0 -29 10 -40 29 -18 31 -69 47 -82 27 -8 -12
-54 -17 -46 -5 2 4 0 10 -5 13 -12 8 -88 13 -126 9z m-122 -148 c-7 -21 -13
-19 -13 6 0 11 4 18 10 14 5 -3 7 -12 3 -20z m416 -155 c-1 -19 -4 -46 -8 -60
-8 -35 -20 73 -13 120 l5 35 9 -30 c4 -16 7 -46 7 -65z m-7 -262 c-9 -9 -12
-7 -12 12 0 19 3 21 12 12 9 -9 9 -15 0 -24z m-411 -45 c-8 -15 -9 -12 -7 12
5 39 7 44 13 23 2 -10 0 -25 -6 -35z m416 -10 c-3 -10 -5 -4 -5 12 0 17 2 24
5 18 2 -7 2 -21 0 -30z"/>
<path d="M7047 1023 c-3 -5 -1 -39 5 -78 5 -38 11 -91 12 -118 1 -26 6 -50 9
-54 4 -3 7 53 7 125 0 108 -3 132 -14 132 -8 0 -17 -3 -19 -7z"/>
<path d="M6638 973 c-18 -4 -19 -40 -3 -90 6 -19 4 -23 -14 -23 -12 0 -24 -7
-28 -15 -5 -14 -7 -14 -23 0 -9 9 -24 13 -34 9 -9 -3 -22 -1 -30 5 -11 9 -23
7 -55 -10 -23 -11 -41 -27 -41 -35 0 -25 -18 -15 -25 13 -11 43 -45 74 -45 41
0 -7 -15 -23 -34 -36 l-34 -23 1 -135 c0 -74 4 -137 9 -140 4 -3 5 -11 1 -17
-4 -7 -8 -21 -9 -32 0 -11 -2 -40 -4 -65 -5 -75 -1 -100 14 -100 28 0 28 -22
2 -46 -31 -29 -32 -38 -7 -63 14 -14 16 -22 8 -30 -7 -7 -6 -16 6 -29 18 -20
23 -62 8 -77 -5 -6 -12 -25 -16 -42 l-7 -33 401 0 401 0 -2 363 c-1 199 -3
345 -5 325 -3 -25 -9 -38 -19 -38 -8 0 -13 4 -10 8 2 4 1 14 -5 22 -7 13 -9
12 -9 -2 0 -10 -4 -18 -10 -18 -16 0 -11 50 5 56 16 7 16 58 0 83 -4 8 -9 30
-11 49 -3 40 -24 70 -24 34 0 -19 -4 -21 -25 -16 -27 7 -33 -4 -13 -24 15 -15
-5 -62 -27 -62 -14 0 -22 44 -15 89 1 9 -4 12 -15 8 -10 -5 -19 1 -26 16 -9
19 -17 22 -42 19 -38 -5 -60 -21 -53 -37 11 -29 -11 -33 -43 -8 -24 19 -31 31
-27 47 8 35 -27 67 -66 59z m382 -228 c0 -14 -4 -25 -10 -25 -5 0 -10 11 -10
25 0 14 5 25 10 25 6 0 10 -11 10 -25z m-616 -33 c-8 -42 -25 -41 -22 1 2 40
8 51 19 40 5 -5 6 -24 3 -41z m396 38 c0 -5 -4 -10 -10 -10 -5 0 -10 5 -10 10
0 6 5 10 10 10 6 0 10 -4 10 -10z m187 -122 c10 -149 10 -204 2 -225 -6 -15
-5 -31 1 -43 7 -13 6 -19 -5 -24 -8 -3 -15 -16 -16 -28 -1 -16 -4 -12 -9 12
-13 55 -22 244 -15 305 6 46 10 53 23 46 9 -5 18 -24 19 -43z m-582 33 c3 -5
1 -12 -5 -16 -5 -3 -10 1 -10 9 0 18 6 21 15 7z m637 -56 c0 -5 -5 -11 -11
-13 -6 -2 -11 4 -11 13 0 9 5 15 11 13 6 -2 11 -8 11 -13z m-632 -55 c0 -5 -4
-10 -10 -10 -5 0 -10 5 -10 10 0 6 5 10 10 10 6 0 10 -4 10 -10z m576 -291 c3
-6 -1 -18 -10 -27 -15 -15 -16 -14 -16 11 0 27 13 36 26 16z m-137 -48 c23
-17 23 -19 7 -42 -10 -15 -16 -43 -16 -77 0 -34 -5 -59 -15 -68 -8 -9 -15 -11
-15 -5 0 7 -14 9 -39 5 -26 -4 -41 -2 -46 6 -8 12 -1 20 40 45 9 6 17 20 18
33 1 12 5 22 9 22 4 0 8 20 8 43 0 62 9 69 49 38z m-469 -51 c0 -5 -4 -10 -10
-10 -5 0 -10 5 -10 10 0 6 5 10 10 10 6 0 10 -4 10 -10z m-10 -55 c0 -14 -4
-25 -10 -25 -5 0 -10 11 -10 25 0 14 5 25 10 25 6 0 10 -11 10 -25z"/>
<path d="M5508 930 c-6 -19 -19 -32 -34 -36 -27 -7 -33 -38 -9 -48 15 -5 22
-37 8 -35 -21 3 -26 -2 -13 -12 11 -8 12 -12 3 -16 -18 -7 -16 -43 2 -43 8 0
15 -7 15 -15 0 -10 -7 -15 -17 -13 -14 2 -18 -5 -20 -32 -1 -19 3 -37 8 -40 5
-3 5 -28 0 -58 -7 -47 -6 -52 10 -52 22 0 23 -4 8 -32 -19 -36 -21 -106 -4
-116 14 -7 13 -11 -5 -27 -11 -10 -20 -25 -20 -33 0 -22 30 -52 46 -45 10 4
14 -3 14 -25 0 -31 18 -46 45 -36 8 4 15 14 15 24 0 26 19 35 26 13 14 -45 19
-48 88 -46 36 1 64 -2 61 -6 -6 -10 63 -31 102 -31 23 0 32 -6 36 -21 7 -25
-12 -33 -57 -26 -18 3 -39 1 -47 -4 -11 -7 -11 -9 3 -9 18 0 50 -38 42 -51 -8
-14 18 -22 28 -8 7 10 8 4 5 -19 -4 -32 -3 -32 39 -32 41 0 43 1 50 35 8 42
24 56 24 21 0 -35 10 -56 27 -56 8 0 12 3 10 8 -3 4 -1 30 3 57 5 30 4 55 -2
62 -9 11 22 53 40 53 11 0 44 93 35 99 -10 7 -11 81 -1 81 4 0 7 8 7 18 0 19
9 84 12 92 1 3 3 37 5 75 6 176 12 239 23 243 14 5 15 32 1 32 -6 0 -10 6 -9
13 3 26 -2 37 -16 37 -9 0 -18 7 -21 15 -7 17 -34 21 -34 5 0 -5 -6 -10 -14
-10 -8 0 -16 -12 -18 -27 -4 -36 -24 -40 -31 -5 -8 40 -39 52 -152 57 -122 6
-183 14 -191 26 -10 17 -35 9 -46 -16 -15 -33 -27 -32 -34 4 -9 42 -33 48 -46
11z m169 -36 c-3 -3 -12 -4 -19 -1 -8 3 -5 6 6 6 11 1 17 -2 13 -5z m-87 -100
c0 -13 -4 -24 -10 -24 -5 0 -10 14 -10 31 0 17 4 28 10 24 6 -3 10 -17 10 -31z
m406 -51 c-11 -11 -17 4 -9 23 7 18 8 18 11 1 2 -10 1 -21 -2 -24z m-416 -227
c-7 -7 -10 1 -9 25 0 32 1 33 10 10 6 -16 6 -28 -1 -35z m5 -164 c0 -18 -20
-15 -23 4 -3 10 1 15 10 12 7 -3 13 -10 13 -16z m380 -202 c9 -14 -4 -52 -16
-45 -12 8 -12 55 0 55 6 0 13 -5 16 -10z"/>
<path d="M6748 953 c7 -3 16 -2 19 1 4 3 -2 6 -13 5 -11 0 -14 -3 -6 -6z"/>
<path d="M1920 911 c0 -5 12 -8 26 -8 18 0 22 2 13 8 -18 11 -39 11 -39 0z"/>
<path d="M1950 870 c0 -5 5 -10 10 -10 6 0 10 5 10 10 0 6 -4 10 -10 10 -5 0
-10 -4 -10 -10z"/>
<path d="M1914 847 c-9 -24 6 -44 18 -22 7 11 6 21 -1 28 -7 7 -12 6 -17 -6z"/>
<path d="M1940 817 c0 -3 7 -18 15 -33 14 -27 15 -27 15 -6 0 12 0 25 1 30 0
4 -7 8 -15 10 -9 2 -16 1 -16 -1z"/>
<path d="M1910 736 c0 -2 16 -6 35 -8 19 -2 35 0 35 4 0 4 -16 8 -35 8 -19 0
-35 -2 -35 -4z"/>
<path d="M1965 697 c-4 -10 -5 -21 -1 -24 10 -10 18 4 13 24 -4 17 -4 17 -12
0z"/>
<path d="M1957 616 c-4 -10 -5 -21 -2 -24 9 -9 17 6 13 25 -3 17 -4 17 -11 -1z"/>
<path d="M1910 601 c0 -12 5 -21 10 -21 6 0 10 6 10 14 0 8 -4 18 -10 21 -5 3
-10 -3 -10 -14z"/>
<path d="M1902 538 c-6 -6 -12 -22 -12 -34 0 -25 18 -42 29 -27 3 5 15 13 26
17 20 8 20 8 1 15 -11 4 -22 15 -25 25 -5 13 -9 14 -19 4z"/>
<path d="M3088 383 c-32 -16 -35 -28 -12 -37 11 -4 14 -13 10 -30 -5 -20 0
-25 34 -36 32 -11 42 -11 55 0 12 10 13 15 3 21 -9 6 -8 10 5 15 13 5 15 10 6
20 -6 7 -8 17 -5 23 4 5 -8 17 -25 25 -37 18 -35 18 -71 -1z"/>
<path d="M2310 360 c0 -5 4 -10 9 -10 6 0 13 5 16 10 3 6 -1 10 -9 10 -9 0
-16 -4 -16 -10z"/>
<path d="M2632 349 c2 -6 8 -10 13 -10 5 0 11 4 13 10 2 6 -4 11 -13 11 -9 0
-15 -5 -13 -11z"/>
<path d="M2408 313 c6 -2 18 -2 25 0 6 3 1 5 -13 5 -14 0 -19 -2 -12 -5z"/>
<path d="M1710 301 c0 -5 -3 -16 -6 -25 -8 -21 22 -32 41 -16 14 11 14 15 -1
31 -18 20 -34 25 -34 10z"/>
<path d="M2256 231 c-4 -6 -17 -9 -29 -6 -28 6 -52 -12 -62 -50 l-8 -30 -10
32 c-16 53 -50 51 -107 -7 -22 -23 -28 -39 -33 -99 l-6 -71 365 0 364 0 0 43
c0 23 3 52 6 65 8 27 34 29 34 2 0 -16 7 -20 30 -20 40 0 55 29 40 75 -13 41
-18 42 -53 15 -30 -24 -41 -25 -57 -5 -7 9 -15 13 -18 10 -3 -3 -13 9 -23 25
-24 38 -60 40 -79 5 -14 -26 -43 -36 -34 -11 7 19 -23 28 -105 31 -44 1 -74
-3 -89 -12 -16 -10 -27 -11 -35 -5 -19 16 -84 25 -91 13z"/>
<path d="M1558 223 c7 -3 16 -2 19 1 4 3 -2 6 -13 5 -11 0 -14 -3 -6 -6z"/>
<path d="M3897 213 c-4 -3 -7 -15 -7 -25 0 -13 7 -18 25 -18 16 0 25 6 25 15
0 8 5 15 11 15 5 0 7 5 4 10 -7 11 -48 14 -58 3z"/>
<path d="M4175 190 c3 -5 11 -10 16 -10 6 0 7 5 4 10 -3 6 -11 10 -16 10 -6 0
-7 -4 -4 -10z"/>
<path d="M4880 190 c0 -6 7 -10 15 -10 8 0 15 2 15 4 0 2 -7 6 -15 10 -8 3
-15 1 -15 -4z"/>
<path d="M3880 90 c-13 -31 -24 -37 -35 -20 -9 14 -68 12 -86 -2 -9 -7 -23
-25 -32 -41 l-17 -27 355 0 c381 0 374 -1 338 50 -10 14 -16 26 -15 28 2 1 -2
10 -7 20 -6 9 -11 12 -11 5 0 -16 -30 -17 -30 -1 0 6 -8 4 -20 -7 -10 -9 -18
-22 -17 -29 1 -6 -7 -11 -18 -11 -13 0 -19 6 -17 16 4 25 -51 43 -113 37 -38
-4 -190 0 -226 6 -33 5 -38 3 -49 -24z"/>
<path d="M5510 104 c0 -8 5 -12 10 -9 6 3 10 10 10 16 0 5 -4 9 -10 9 -5 0
-10 -7 -10 -16z"/>
<path d="M1867 96 c-8 -21 8 -29 44 -21 38 8 33 29 -8 33 -20 2 -32 -2 -36
-12z"/>
<path d="M4760 93 c0 -5 -9 -19 -20 -33 l-20 -25 -20 25 -20 25 -17 -22 c-10
-11 -27 -23 -38 -25 -11 -2 -21 -11 -23 -21 -3 -16 18 -17 312 -17 l315 0 -24
26 c-14 15 -25 33 -25 40 0 9 -6 10 -29 1 -25 -9 -33 -8 -49 6 -21 19 -63 22
-79 6 -8 -8 -17 -7 -34 5 -26 18 -119 22 -135 6 -6 -6 -22 -6 -44 0 -42 12
-50 12 -50 3z"/>
<path d="M5750 90 c-13 -8 -12 -10 3 -10 9 0 17 5 17 10 0 12 -1 12 -20 0z"/>
<path d="M5730 60 c-8 -5 -6 -9 8 -12 11 -3 26 -2 33 3 8 5 12 9 9 10 -3 0
-12 2 -21 4 -9 1 -22 -1 -29 -5z"/>
<path d="M2790 30 c0 -26 4 -30 26 -30 22 0 24 3 18 23 -7 21 -21 37 -36 37
-5 0 -8 -13 -8 -30z"/>
</g>
</svg>
